<?xml version="1.0" standalone="no"?>
<!DOCTYPE svg PUBLIC "-//W3C//DTD SVG 20010904//EN"
 "http://www.w3.org/TR/2001/REC-SVG-20010904/DTD/svg10.dtd">
<svg version="1.0" xmlns="http://www.w3.org/2000/svg"
 width="600.000000pt" height="600.000000pt" viewBox="0 0 600.000000 600.000000"
 preserveAspectRatio="xMidYMid meet">
<metadata>
Created by potrace 1.14, written by Peter Selinger 2001-2017
</metadata>
<g transform="translate(0.000000,600.000000) scale(0.100000,-0.100000)"
fill="#000000" stroke="none">
<path d="M0 3000 l0 -3000 3000 0 3000 0 0 3000 0 3000 -3000 0 -3000 0 0
-3000z m2758 2310 c23 -10 42 -22 42 -26 0 -13 -33 -44 -47 -44 -21 0 -33 -44
-33 -121 0 -49 4 -69 13 -69 6 1 37 14 67 30 102 55 110 46 110 -131 0 -156
-5 -169 -69 -169 -67 0 -87 62 -23 68 l32 3 0 79 c0 117 1 117 -87 68 -70 -38
-77 -40 -88 -24 -31 41 -25 198 8 266 13 24 13 29 1 34 -17 7 -18 28 -2 44 16
16 25 15 76 -8z m-549 -423 c8 -10 4 -22 -15 -48 -49 -65 -49 -64 14 -108 63
-45 53 -47 102 19 18 24 20 24 36 8 16 -16 16 -19 -9 -52 -15 -19 -27 -39 -27
-45 0 -11 184 -151 197 -151 5 1 23 21 41 45 33 46 58 57 68 30 7 -18 -92
-155 -112 -155 -24 0 -363 253 -369 276 -5 14 -13 20 -24 17 -10 -2 -23 3 -31
12 -11 13 -10 21 10 48 13 18 38 51 54 74 33 45 47 51 65 30z m941 -1792 c0
-767 -4 -1395 -8 -1395 -5 0 -112 91 -238 203 l-229 203 -3 164 c-1 90 0 171
4 180 4 11 52 -34 174 -160 l169 -175 1 54 c0 103 -11 121 -173 280 -82 80
-156 160 -163 178 -11 26 -14 110 -14 407 0 206 4 377 8 380 5 3 44 -31 88
-75 43 -44 124 -122 178 -172 l99 -92 -6 58 c-8 84 -40 129 -182 264 -69 65
-137 135 -152 156 -24 34 -25 43 -20 106 10 122 86 309 194 474 64 100 255
357 265 357 4 0 8 -628 8 -1395z m214 1359 c55 -20 224 -134 295 -200 32 -30
66 -69 75 -87 21 -45 22 -215 2 -279 l-15 -48 121 -206 122 -207 58 -260 c32
-143 58 -262 58 -263 0 -2 -37 -25 -82 -53 -46 -28 -100 -66 -120 -83 l-38
-33 20 -65 c10 -36 34 -120 53 -187 l34 -122 -58 -36 c-62 -38 -63 -38 -79
-146 l-10 -67 46 -101 47 -101 -38 -45 c-20 -25 -47 -52 -59 -59 -18 -12 -512
-126 -543 -126 -10 0 -13 287 -13 1401 l0 1401 42 -7 c24 -4 61 -14 82 -21z
m-1237 -176 c262 -96 266 -99 240 -144 -12 -21 -13 -21 -152 31 -77 29 -143
51 -147 49 -3 -2 -13 -24 -21 -48 l-15 -44 145 -53 c141 -51 144 -53 138 -78
-4 -14 -10 -29 -13 -33 -4 -4 -118 33 -252 83 -135 49 -250 91 -257 94 -17 6
4 65 22 65 8 0 49 -13 92 -30 42 -16 81 -30 85 -30 5 0 8 12 8 28 0 15 1 38 2
50 3 21 -6 27 -76 53 -43 16 -81 30 -82 32 -5 5 19 67 26 67 3 0 119 -42 257
-92z m-351 -542 c3 -13 1 -33 -4 -43 -9 -16 -1 -30 46 -86 95 -112 84 -110
229 -38 91 46 126 69 133 87 10 24 34 32 45 15 3 -6 3 -28 -1 -49 -6 -39 -10
-42 -108 -95 -55 -30 -127 -65 -160 -78 l-59 -24 -79 85 c-43 47 -81 97 -84
112 -5 23 -9 26 -25 17 -53 -28 -52 37 1 85 47 42 58 44 66 12z m250 -743 c-4
-70 -9 -130 -12 -132 -2 -2 -72 16 -155 40 -106 31 -153 49 -156 60 -4 14 -11
15 -41 8 -53 -12 -52 -12 -52 25 l0 34 118 27 c64 15 151 35 192 45 123 30
114 40 106 -107z m139 117 c4 -6 3 -67 -1 -136 l-7 -125 -26 3 c-21 2 -26 8
-25 31 1 15 2 74 3 132 1 104 1 105 25 105 14 0 28 -5 31 -10z m-273 -637 c47
-31 65 -48 61 -59 -5 -13 3 -14 43 -10 27 3 79 8 115 11 l67 5 4 -36 c2 -20 0
-38 -6 -39 -6 -2 -110 -11 -231 -19 -202 -14 -221 -14 -237 1 -14 13 -21 14
-30 5 -19 -19 -38 -14 -48 14 -12 30 10 80 71 162 l40 52 42 -21 c23 -12 72
-41 109 -66z m330 -428 c5 -22 -2 -29 -51 -57 -31 -17 -58 -33 -60 -34 -2 -2
0 -23 3 -48 l7 -45 67 -7 c68 -7 82 -15 82 -46 0 -16 -13 -18 -137 -18 -195 0
-303 10 -303 26 0 18 0 18 -61 -6 -42 -17 -54 -18 -61 -8 -25 39 -9 50 247
160 138 58 253 107 256 107 4 1 9 -10 11 -24z m698 -275 c118 -107 218 -199
222 -205 4 -5 8 -211 8 -457 l0 -448 -81 0 -81 0 7 396 8 396 -162 162 c-179
179 -181 183 -181 310 l0 79 23 -19 c12 -11 119 -108 237 -214z"/>
<path d="M3443 3828 c-36 -17 -57 -72 -43 -113 28 -85 152 -86 180 -1 27 82
-58 152 -137 114z"/>
<path d="M1885 3023 c-38 -8 -74 -18 -78 -22 -4 -4 26 -18 68 -30 42 -13 78
-21 79 -20 7 9 14 79 8 82 -4 2 -38 -3 -77 -10z"/>
<path d="M1731 2434 c-12 -15 -21 -31 -21 -36 0 -7 129 -1 138 7 6 5 -72 55
-85 55 -6 0 -21 -12 -32 -26z"/>
<path d="M1960 1892 l-65 -27 74 -3 c40 -2 76 -1 78 2 8 7 -6 56 -15 55 -4 0
-36 -13 -72 -27z"/>
</g>
</svg>
